<?xml version="1.0" encoding="UTF-8" standalone="no"?>
<svg
   xmlns:dc="http://purl.org/dc/elements/1.1/"
   xmlns:cc="http://creativecommons.org/ns#"
   xmlns:rdf="http://www.w3.org/1999/02/22-rdf-syntax-ns#"
   xmlns:svg="http://www.w3.org/2000/svg"
   xmlns="http://www.w3.org/2000/svg"
   xmlns:sodipodi="http://sodipodi.sourceforge.net/DTD/sodipodi-0.dtd"
   xmlns:inkscape="http://www.inkscape.org/namespaces/inkscape"
   version="1.0"
   width="110.000000pt"
   height="130.000000pt"
   viewBox="0 0 110.000000 130.000000"
   preserveAspectRatio="xMidYMid meet"
   id="svg3056"
   inkscape:version="0.91 r13725"
   sodipodi:docname="Logo.svg">
  <defs
     id="defs3066" />
  <sodipodi:namedview
     pagecolor="#ffffff"
     bordercolor="#666666"
     borderopacity="1"
     objecttolerance="10"
     gridtolerance="10"
     guidetolerance="10"
     inkscape:pageopacity="0"
     inkscape:pageshadow="2"
     inkscape:window-width="1600"
     inkscape:window-height="876"
     id="namedview3064"
     showgrid="false"
     inkscape:zoom="4.1077465"
     inkscape:cx="46.911085"
     inkscape:cy="75.547746"
     inkscape:window-x="0"
     inkscape:window-y="24"
     inkscape:window-maximized="1"
     inkscape:current-layer="svg3056" />
  <metadata
     id="metadata3058">
Created by potrace 1.11, written by Peter Selinger 2001-2013
<rdf:RDF>
  <cc:Work
     rdf:about="">
    <dc:format>image/svg+xml</dc:format>
    <dc:type
       rdf:resource="http://purl.org/dc/dcmitype/StillImage" />
    <dc:title />
  </cc:Work>
</rdf:RDF>
</metadata>
  <rect
     style="fill:#262626;fill-opacity:1;stroke:none;stroke-width:6.15999985;stroke-linejoin:round;stroke-miterlimit:4;stroke-dasharray:none;stroke-dashoffset:0;stroke-opacity:1"
     id="rect4153"
     width="139.2491"
     height="143.14418"
     x="-10.906223"
     y="-6.3277893" />
  <g
     id="g3954">
    <path
       sodipodi:nodetypes="ccccsssssscccsccsscccssccscccssssssccccsccsccccccscc"
       d="M 18.202716,7.3262895 C 6.089036,13.629342 0.27840923,23.280892 2.8390244,32.932441 c 1.3787928,5.121231 3.939408,9.553065 9.0606386,15.757632 l 3.742437,4.628805 0,11.719738 c 0,7.780331 -0.04684,11.605088 1.080103,12.732034 1.059134,1.059133 6.93018,0.622106 17.69343,0.639319 9.781422,0.01564 16.901531,-0.66441 16.867625,0.308288 -0.03087,0.885829 -0.01977,2.209501 -0.05038,3.327997 -0.03187,1.164075 -4.666415,1.015159 -8.507338,1.015159 l -8.371242,0 0,6.401538 0,6.401537 -5.219715,0 c -3.840923,0 -5.712142,0.492426 -6.893964,1.772728 -2.26516,2.462134 -6.106083,26.492524 -4.53032,28.363744 0.787882,0.98485 3.742438,1.37879 10.734887,1.37879 11.522768,0 12.803076,-0.88637 12.803076,-8.6667 l 0,-5.12123 14.280354,0 14.280354,0 0,5.21972 c 0,7.68184 1.280307,8.56821 13.000046,8.56821 6.795479,0 9.750035,-0.39394 10.537916,-1.37879 1.575763,-1.87122 -2.265159,-25.90161 -4.530319,-28.363744 -1.181822,-1.280302 -3.053041,-1.772728 -6.893964,-1.772728 l -5.219715,0 0,-6.401537 0,-6.401538 -8.371242,0 c -7.681846,0 -8.371242,-0.196971 -8.371242,-1.969704 0,-0.93561 -0.09727,-2.431331 0.427951,-2.652893 0.592931,-0.250123 8.053878,-0.09666 15.981936,-0.09666 11.522769,0 17.07508,0.385907 17.862962,-0.401975 0.787882,-0.787881 1.181822,-5.121235 1.181822,-12.901566 l 0,-11.719738 3.742438,-4.628805 C 113.83186,30.962734 111.5667,16.87935 92.46056,7.2278003 84.089319,2.9929368 82.907496,3.6823332 86.551448,10.773268 c 1.674249,3.053041 2.954556,6.992449 2.954556,8.863668 0,3.643952 -2.068189,9.651549 -3.742437,10.636401 -0.590911,0.295456 -3.446982,-1.871219 -6.500023,-4.825775 -3.151527,-3.151526 -7.878816,-6.598508 -10.931857,-7.977301 -3.053041,-1.378792 -9.088271,-3.213513 -9.159124,-6.500023 L 55.430126,7.0308299 51.884658,10.970238 c 0.07632,3.383887 -6.007597,5.022745 -9.060638,6.401538 -3.151526,1.477278 -7.878816,4.92426 -11.030342,8.075786 -3.053041,2.954556 -5.909112,5.121231 -6.500023,4.825775 -1.674249,-0.984852 -3.742438,-6.992449 -3.742438,-10.636401 0,-1.871219 1.280308,-5.810627 2.856071,-8.765183 4.037893,-7.6818458 3.053041,-8.272757 -6.204572,-3.5454635 z"
       id="path3062"
       inkscape:connector-curvature="0"
       style="fill:#ff2400;fill-opacity:1;stroke:#000000;stroke-width:0.98485202;stroke-opacity:1" />
    <path
       sodipodi:nodetypes="cscc"
       inkscape:connector-curvature="0"
       id="path3848"
       d="m 21.185127,71.955955 c 0,0 -3.808188,-44.942987 29.106234,-53.273519 0.723449,-0.183103 0.287706,16.92669 0.287706,16.92669 0,0 -27.222958,2.456749 -29.39394,36.346829 z"
       style="fill:#000000;stroke:#000000;stroke-width:0.78788161px;stroke-linecap:butt;stroke-linejoin:miter;stroke-opacity:1" />
    <rect
       y="45.085674"
       x="39.629265"
       height="3.3906453"
       width="9.4259939"
       id="rect3850"
       style="fill:#000000;fill-opacity:1;stroke:#000000;stroke-width:0.78800000000000003;stroke-miterlimit:4;stroke-opacity:1;stroke-dasharray:none;stroke-linejoin:round" />
    <rect
       y="52.748531"
       x="36.374249"
       height="3.7297096"
       width="15.868218"
       id="rect3852"
       style="fill:#000000;fill-opacity:1;stroke:#000000;stroke-width:0.78800000000000003;stroke-miterlimit:4;stroke-opacity:1;stroke-dasharray:none;stroke-linejoin:round" />
    <rect
       y="60.750454"
       x="39.629265"
       height="3.5262709"
       width="9.2903671"
       id="rect3854"
       style="fill:#000000;fill-opacity:1;stroke:#000000;stroke-width:0.78800000000000003;stroke-miterlimit:4;stroke-opacity:1;stroke-dasharray:none;stroke-linejoin:round" />
    <rect
       y="99.946304"
       x="21.285877"
       height="1.424071"
       width="19.631834"
       id="rect3856"
       style="fill:#000000;fill-opacity:1;stroke:#000000;stroke-width:0.78788161;stroke-miterlimit:4;stroke-opacity:1;stroke-dasharray:none" />
    <rect
       y="105.94776"
       x="19.8279"
       height="2.4073579"
       width="21.089813"
       id="rect3858"
       style="fill:#000000;fill-opacity:1;stroke:#000000;stroke-width:0.78788161;stroke-miterlimit:4;stroke-opacity:1;stroke-dasharray:none" />
    <rect
       y="112.72903"
       x="18.607269"
       height="1.6275096"
       width="22.344351"
       id="rect3860"
       style="fill:#000000;fill-opacity:1;stroke:#000000;stroke-width:0.78788161;stroke-miterlimit:4;stroke-opacity:1;stroke-dasharray:none" />
    <rect
       y="119.51034"
       x="17.657887"
       height="1.5596968"
       width="23.361546"
       id="rect3862"
       style="fill:#000000;fill-opacity:1;stroke:#000000;stroke-width:0.78788161;stroke-miterlimit:4;stroke-opacity:1;stroke-dasharray:none" />
    <rect
       y="82.39666"
       x="51.153347"
       height="0.25935695"
       width="9.3151398"
       id="rect3864"
       style="fill:#000000;fill-opacity:1;stroke:#000000;stroke-width:0.56993508;stroke-miterlimit:4;stroke-opacity:1;stroke-dasharray:none" />
    <path
       sodipodi:nodetypes="cscc"
       inkscape:connector-curvature="0"
       id="path3848-1"
       d="m 89.772337,71.955959 c 0,0 3.808187,-44.942988 -29.106236,-53.273519 -0.723449,-0.183104 -0.287705,16.926689 -0.287705,16.926689 0,0 27.222959,2.45675 29.393941,36.34683 z"
       style="fill:#000000;stroke:#000000;stroke-width:0.78788161px;stroke-linecap:butt;stroke-linejoin:miter;stroke-opacity:1" />
    <rect
       transform="scale(-1,1)"
       y="45.085678"
       x="-71.328262"
       height="3.3906453"
       width="9.425993"
       id="rect3850-4"
       style="fill:#000000;fill-opacity:1;stroke:#000000;stroke-width:0.78800000000000003;stroke-miterlimit:4;stroke-opacity:1;stroke-dasharray:none;stroke-linejoin:round" />
    <rect
       transform="scale(-1,1)"
       y="52.748535"
       x="-74.58329"
       height="3.7297096"
       width="15.868218"
       id="rect3852-5"
       style="fill:#000000;fill-opacity:1;stroke:#000000;stroke-width:0.78800000000000003;stroke-miterlimit:4;stroke-opacity:1;stroke-dasharray:none;stroke-linejoin:round" />
    <rect
       transform="scale(-1,1)"
       y="60.750458"
       x="-71.328262"
       height="3.5262709"
       width="9.2903681"
       id="rect3854-0"
       style="fill:#000000;fill-opacity:1;stroke:#000000;stroke-width:0.78800000000000003;stroke-miterlimit:4;stroke-opacity:1;stroke-dasharray:none;stroke-linejoin:round" />
    <rect
       transform="scale(-1,1)"
       y="99.946297"
       x="-89.671654"
       height="1.424071"
       width="19.631834"
       id="rect3856-9"
       style="fill:#000000;fill-opacity:1;stroke:#000000;stroke-width:0.78788161;stroke-miterlimit:4;stroke-opacity:1;stroke-dasharray:none" />
    <rect
       transform="scale(-1,1)"
       y="105.94774"
       x="-91.129646"
       height="2.4073579"
       width="21.089813"
       id="rect3858-6"
       style="fill:#000000;fill-opacity:1;stroke:#000000;stroke-width:0.78788161;stroke-miterlimit:4;stroke-opacity:1;stroke-dasharray:none" />
    <rect
       transform="scale(-1,1)"
       y="112.72903"
       x="-92.350281"
       height="1.6275096"
       width="22.344351"
       id="rect3860-7"
       style="fill:#000000;fill-opacity:1;stroke:#000000;stroke-width:0.78788161;stroke-miterlimit:4;stroke-opacity:1;stroke-dasharray:none" />
    <rect
       transform="scale(-1,1)"
       y="119.51034"
       x="-93.29966"
       height="1.5596968"
       width="23.361546"
       id="rect3862-2"
       style="fill:#000000;fill-opacity:1;stroke:#000000;stroke-width:0.78788161;stroke-miterlimit:4;stroke-opacity:1;stroke-dasharray:none" />
    <path
       sodipodi:nodetypes="ccsc"
       inkscape:connector-curvature="0"
       id="path3916-4"
       d="m 69.834878,113.80894 0.162011,-14.951039 c 0,0 0.366648,-3.053528 3.552656,-2.959794 3.458458,0.101747 3.422848,0.08183 3.422848,0.08183"
       style="fill:none;stroke:#000000;stroke-width:0.78788161px;stroke-linecap:butt;stroke-linejoin:miter;stroke-opacity:1" />
    <path
       sodipodi:nodetypes="ccsc"
       inkscape:connector-curvature="0"
       id="path3916-4-0"
       d="M 41.281098,113.80894 41.119087,98.857901 c 0,0 -0.366648,-3.053528 -3.552656,-2.959794 -3.458458,0.101747 -3.422848,0.08183 -3.422848,0.08183"
       style="fill:none;stroke:#000000;stroke-width:0.78788161px;stroke-linecap:butt;stroke-linejoin:miter;stroke-opacity:1" />
  </g>
</svg>
