<?xml version="1.0" encoding="UTF-8" standalone="no"?>
<!-- Created with Inkscape (http://www.inkscape.org/) -->

<svg
   xmlns:dc="http://purl.org/dc/elements/1.1/"
   xmlns:cc="http://creativecommons.org/ns#"
   xmlns:rdf="http://www.w3.org/1999/02/22-rdf-syntax-ns#"
   xmlns:svg="http://www.w3.org/2000/svg"
   xmlns="http://www.w3.org/2000/svg"
   xmlns:sodipodi="http://sodipodi.sourceforge.net/DTD/sodipodi-0.dtd"
   xmlns:inkscape="http://www.inkscape.org/namespaces/inkscape"
   width="500"
   height="500"
   id="svg2"
   version="1.1"
   inkscape:version="0.48.5 r10040"
   sodipodi:docname="background.svg">
  <defs
     id="defs4" />
  <sodipodi:namedview
     id="base"
     pagecolor="#ffffff"
     bordercolor="#666666"
     borderopacity="1.0"
     inkscape:pageopacity="0.0"
     inkscape:pageshadow="2"
     inkscape:zoom="1.4"
     inkscape:cx="492.86391"
     inkscape:cy="244.51801"
     inkscape:document-units="px"
     inkscape:current-layer="layer1"
     showgrid="false"
     inkscape:window-width="1600"
     inkscape:window-height="876"
     inkscape:window-x="1600"
     inkscape:window-y="24"
     inkscape:window-maximized="1" />
  <metadata
     id="metadata7">
    <rdf:RDF>
      <cc:Work
         rdf:about="">
        <dc:format>image/svg+xml</dc:format>
        <dc:type
           rdf:resource="http://purl.org/dc/dcmitype/StillImage" />
      </cc:Work>
    </rdf:RDF>
  </metadata>
  <g
     inkscape:label="Layer 1"
     inkscape:groupmode="layer"
     id="layer1"
     transform="translate(0,-552.36218)">
    <rect
       style="fill:#ffffff;fill-opacity:1;stroke:#000000;stroke-width:2.40799998999999998;stroke-linecap:round;stroke-linejoin:round;stroke-miterlimit:4;stroke-opacity:1;stroke-dasharray:none"
       id="rect2989"
       width="530.33008"
       height="523.25903"
       x="-7.0710678"
       y="-6.0864253"
       transform="translate(0,552.36218)" />
    <g
       style="font-size:541.57513428px;font-style:normal;font-weight:normal;line-height:125%;letter-spacing:0px;word-spacing:0px;fill:#999999;fill-opacity:1;stroke:none;font-family:Sans"
       id="text2985-0-4">
      <path
         d="m 425.19039,686.48386 c -1.80559,3.4e-4 -3.06927,-0.36071 -3.79103,-1.08315 -0.72244,-1.44386 -1.26401,-3.61016 -1.62472,-6.4989 -3.4e-4,-2.88806 -0.18086,-4.87383 -0.54158,-5.95732 -1.44453,-5.4154 -4.87451,-10.65063 -10.28992,-15.70568 -5.41608,-5.41539 -10.47077,-8.12326 -15.16411,-8.12363 -3.61081,3.7e-4 -7.04078,2.70824 -10.28993,8.12363 -2.8887,5.05505 -5.77709,12.09552 -8.6652,21.12143 l -4.3326,14.08095 -24.91246,62.82272 c -7.22125,18.4138 -21.84377,52.89404 -43.86758,103.44085 -21.6632,50.18607 -37.54939,89.35996 -47.65861,117.5218 6.49872,-3.2494 11.37289,-4.87413 14.62253,-4.87418 3.24926,5e-5 8.12343,1.0832 14.62252,3.24946 6.4987,1.80529 10.65077,2.88844 12.45623,3.24945 19.13542,4.33263 36.28529,6.49893 51.44964,6.4989 25.99532,3e-5 44.95043,-1.62469 56.86539,-4.87418 l 17.87198,-5.41575 c 11.9143,-3.9715 19.67687,-5.95728 23.28773,-5.95733 2.52698,5e-5 3.79066,1.44425 3.79103,4.3326 -3.7e-4,7.94315 -14.80341,15.16414 -44.40917,21.66301 -29.6064,6.13786 -50.54728,9.20676 -62.82271,9.20676 l -13.53938,0 c -19.13588,0 -46.03409,-4.33256 -80.69469,-12.99779 -2.88857,9.02628 -9.92904,17.69149 -21.12144,25.99559 -10.83163,7.9431 -20.94102,11.9147 -30.3282,11.9147 -8.30426,0 -14.62263,-3.6105 -18.95513,-10.8315 -3.97164,-7.221 -5.41584,-14.9836 -4.3326,-23.28776 15.88609,-124.20108 27.80074,-238.11227 35.74396,-341.73391 -17.33052,6.49926 -33.93881,9.74871 -49.82492,9.74835 -7.58212,3.6e-4 -16.06679,-1.08279 -25.45403,-3.24945 -9.02629,-2.52699 -15.34466,-3.97119 -18.95513,-4.3326 l -16.788827,16.24726 c -11.192557,10.83183 -19.85775,16.24758 -25.995607,16.24725 -1.444188,3.3e-4 -2.527337,-0.90229 -3.24945,-2.70788 0.361063,-2.52701 3.068936,-6.67908 8.123627,-12.45622 5.054702,-6.1375 11.553597,-12.99745 19.496705,-20.57986 7.943082,-7.94273 12.095152,-12.0948 12.456232,-12.45623 5.77677,-5.77641 12.09514,-8.66481 18.95513,-8.6652 1.44415,3.9e-4 8.12357,2.34721 20.03828,7.04048 12.27562,4.69402 22.74606,7.04085 31.41135,7.04047 7.2209,3.8e-4 14.98347,-1.08277 23.28773,-3.24945 8.66508,-2.52697 15.88607,-5.05432 21.66301,-7.58205 5.77665,-2.52696 9.0261,-3.79064 9.74835,-3.79103 l 2.70788,1.08316 c 0.72194,1.08353 1.08299,3.06931 1.08315,5.95732 -1.6e-4,11.91502 -2.16646,38.6327 -6.4989,80.15312 -11.55374,113.73097 -17.51106,172.58207 -17.87198,176.5535 -0.36118,3.97167 -2.34696,17.69156 -5.95733,41.15971 -3.24957,23.10726 -4.8743,39.71555 -4.87418,49.82491 -1.2e-4,4.33263 0.90251,9.38732 2.70788,15.1641 2.16618,5.77681 5.05457,8.66521 8.6652,8.66521 2.52722,0 6.31824,-6.1378 11.37308,-18.41356 5.4156,-12.27566 8.48453,-20.03823 9.20678,-23.28773 l 89.90147,-217.17163 20.57985,-52.53279 c 3.97129,-10.83117 7.40126,-19.13531 10.28993,-24.91245 2.88813,-5.77645 6.85967,-12.45587 11.91465,-20.03828 5.41547,-7.94273 11.91436,-13.539 19.49671,-16.78883 7.58174,-3.61012 16.24693,-5.41537 25.99561,-5.41576 10.10906,3.9e-4 18.77425,3.43037 25.9956,10.28993 7.22064,6.86033 10.83114,15.34499 10.83151,25.45403 -3.7e-4,4.694 -2.70824,9.38765 -8.12363,14.08096 -5.41611,4.69398 -10.65133,7.04081 -15.70568,7.04047"
         style="font-variant:normal;font-stretch:normal;fill:#999999;font-family:UnPilgi;-inkscape-font-specification:UnPilgi"
         id="path3894" />
    </g>
    <g
       style="font-size:541.57513428px;font-style:normal;font-weight:normal;line-height:125%;letter-spacing:0px;word-spacing:0px;fill:#cccccc;fill-opacity:1;stroke:none;font-family:Sans"
       id="text2985-0">
      <path
         d="m 431.38791,686.48386 c -1.80559,3.4e-4 -3.06927,-0.36071 -3.79103,-1.08315 -0.72244,-1.44386 -1.26401,-3.61016 -1.62472,-6.4989 -3.4e-4,-2.88806 -0.18087,-4.87383 -0.54158,-5.95732 -1.44454,-5.4154 -4.87451,-10.65063 -10.28993,-15.70568 -5.41607,-5.41539 -10.47077,-8.12326 -15.1641,-8.12363 -3.61081,3.7e-4 -7.04078,2.70824 -10.28993,8.12363 -2.8887,5.05505 -5.7771,12.09552 -8.6652,21.12143 l -4.3326,14.08095 -24.91246,62.82272 c -7.22126,18.4138 -21.84377,52.89404 -43.86758,103.44085 -21.66321,50.18607 -37.5494,89.35996 -47.65862,117.5218 6.49873,-3.2494 11.3729,-4.87413 14.62253,-4.87418 3.24926,5e-5 8.12344,1.0832 14.62253,3.24946 6.4987,1.80529 10.65077,2.88844 12.45623,3.24945 19.13542,4.33263 36.28528,6.49893 51.44964,6.4989 25.99531,3e-5 44.95042,-1.62469 56.86539,-4.87418 l 17.87198,-5.41575 c 11.9143,-3.9715 19.67687,-5.95728 23.28773,-5.95733 2.52698,5e-5 3.79066,1.44425 3.79102,4.3326 -3.6e-4,7.94315 -14.8034,15.16414 -44.40916,21.66301 -29.6064,6.13786 -50.54728,9.20676 -62.82271,9.20676 l -13.53938,0 c -19.13588,0 -46.03409,-4.33256 -80.6947,-12.99779 -2.88856,9.02628 -9.92903,17.69149 -21.12143,25.99559 -10.83163,7.9431 -20.94103,11.9147 -30.32821,11.9147 -8.30425,0 -14.62262,-3.6105 -18.95512,-10.8315 -3.97165,-7.221 -5.41585,-14.9836 -4.33261,-23.28776 15.8861,-124.20108 27.80074,-238.11227 35.74396,-341.73391 -17.33051,6.49926 -33.9388,9.74871 -49.82491,9.74835 -7.58212,3.6e-4 -16.06679,-1.08279 -25.45403,-3.24945 -9.02629,-2.52699 -15.34467,-3.97119 -18.95513,-4.3326 l -16.78883,16.24726 c -11.192556,10.83183 -19.85775,16.24758 -25.995606,16.24725 -1.444188,3.3e-4 -2.527337,-0.90229 -3.249451,-2.70788 0.361064,-2.52701 3.068937,-6.67908 8.123627,-12.45622 5.054702,-6.1375 11.553597,-12.99745 19.4967,-20.57986 7.94309,-7.94273 12.09516,-12.0948 12.45623,-12.45623 5.77677,-5.77641 12.09514,-8.66481 18.95513,-8.6652 1.44416,3.9e-4 8.12358,2.34721 20.03828,7.04048 12.27563,4.69402 22.74607,7.04085 31.41136,7.04047 7.2209,3.8e-4 14.98347,-1.08277 23.28773,-3.24945 8.66508,-2.52697 15.88607,-5.05432 21.66301,-7.58205 5.77665,-2.52696 9.0261,-3.79064 9.74835,-3.79103 l 2.70787,1.08316 c 0.72195,1.08353 1.083,3.06931 1.08315,5.95732 -1.5e-4,11.91502 -2.16645,38.6327 -6.4989,80.15312 -11.55374,113.73097 -17.51106,172.58207 -17.87198,176.5535 -0.36118,3.97167 -2.34695,17.69156 -5.95732,41.15971 -3.24957,23.10726 -4.8743,39.71555 -4.87418,49.82491 -1.2e-4,4.33263 0.90251,9.38732 2.70788,15.1641 2.16617,5.77681 5.05457,8.66521 8.6652,8.66521 2.52722,0 6.31824,-6.1378 11.37308,-18.41356 5.4156,-12.27566 8.48452,-20.03823 9.20677,-23.28773 l 89.90148,-217.17163 20.57985,-52.53279 c 3.97129,-10.83117 7.40126,-19.13531 10.28993,-24.91245 2.88812,-5.77645 6.85967,-12.45587 11.91465,-20.03828 5.41546,-7.94273 11.91436,-13.539 19.49671,-16.78883 7.58174,-3.61012 16.24693,-5.41537 25.9956,-5.41576 10.10907,3.9e-4 18.77426,3.43037 25.99561,10.28993 7.22064,6.86033 10.83114,15.34499 10.8315,25.45403 -3.6e-4,4.694 -2.70824,9.38765 -8.12362,14.08096 -5.41611,4.69398 -10.65133,7.04081 -15.70568,7.04047"
         style="font-variant:normal;font-stretch:normal;fill:#cccccc;font-family:UnPilgi;-inkscape-font-specification:UnPilgi"
         id="path3891" />
    </g>
    <g
       style="font-size:541.57513428px;font-style:normal;font-weight:normal;line-height:125%;letter-spacing:0px;word-spacing:0px;fill:#e97b70;fill-opacity:1;stroke:none;font-family:Sans"
       id="text2985">
      <path
         d="m 428.97777,686.48386 c -1.80559,3.4e-4 -3.06926,-0.36071 -3.79102,-1.08315 -0.72244,-1.44386 -1.26402,-3.61016 -1.62473,-6.4989 -3.4e-4,-2.88806 -0.18086,-4.87383 -0.54157,-5.95732 -1.44454,-5.4154 -4.87451,-10.65063 -10.28993,-15.70568 -5.41607,-5.41539 -10.47077,-8.12326 -15.1641,-8.12363 -3.61081,3.7e-4 -7.04079,2.70824 -10.28993,8.12363 -2.8887,5.05505 -5.7771,12.09552 -8.6652,21.12143 l -4.33261,14.08095 -24.91245,62.82272 c -7.22126,18.4138 -21.84377,52.89404 -43.86759,103.44085 -21.6632,50.18607 -37.54939,89.35996 -47.65861,117.5218 6.49872,-3.2494 11.3729,-4.87413 14.62253,-4.87418 3.24926,5e-5 8.12343,1.0832 14.62253,3.24946 6.49869,1.80529 10.65076,2.88844 12.45623,3.24945 19.13542,4.33263 36.28528,6.49893 51.44963,6.4989 25.99532,3e-5 44.95043,-1.62469 56.86539,-4.87418 l 17.87198,-5.41575 c 11.9143,-3.9715 19.67687,-5.95728 23.28773,-5.95733 2.52699,5e-5 3.79066,1.44425 3.79103,4.3326 -3.7e-4,7.94315 -14.80341,15.16414 -44.40916,21.66301 -29.6064,6.13786 -50.54729,9.20676 -62.82272,9.20676 l -13.53938,0 c -19.13588,0 -46.03408,-4.33256 -80.69469,-12.99779 -2.88856,9.02628 -9.92903,17.69149 -21.12143,25.99559 -10.83164,7.9431 -20.94103,11.9147 -30.32821,11.9147 -8.30426,0 -14.62263,-3.6105 -18.95513,-10.8315 -3.97164,-7.221 -5.41584,-14.9836 -4.3326,-23.28776 15.8861,-124.20108 27.80074,-238.11227 35.74396,-341.73391 -17.33051,6.49926 -33.9388,9.74871 -49.82491,9.74835 -7.58212,3.6e-4 -16.06679,-1.08279 -25.45403,-3.24945 -9.0263,-2.52699 -15.34467,-3.97119 -18.95513,-4.3326 l -16.78883,16.24726 c -11.19256,10.83183 -19.857753,16.24758 -25.995609,16.24725 -1.444189,3.3e-4 -2.527338,-0.90229 -3.249451,-2.70788 0.361064,-2.52701 3.068936,-6.67908 8.123627,-12.45622 5.054702,-6.1375 11.553597,-12.99745 19.496705,-20.57986 7.943078,-7.94273 12.095148,-12.0948 12.456228,-12.45623 5.77677,-5.77641 12.09514,-8.66481 18.95513,-8.6652 1.44415,3.9e-4 8.12357,2.34721 20.03828,7.04048 12.27563,4.69402 22.74607,7.04085 31.41136,7.04047 7.2209,3.8e-4 14.98346,-1.08277 23.28773,-3.24945 8.66507,-2.52697 15.88607,-5.05432 21.663,-7.58205 5.77666,-2.52696 9.02611,-3.79064 9.74836,-3.79103 l 2.70787,1.08316 c 0.72195,1.08353 1.083,3.06931 1.08315,5.95732 -1.5e-4,11.91502 -2.16645,38.6327 -6.4989,80.15312 -11.55374,113.73097 -17.51106,172.58207 -17.87198,176.5535 -0.36118,3.97167 -2.34695,17.69156 -5.95733,41.15971 -3.24957,23.10726 -4.87429,39.71555 -4.87417,49.82491 -1.2e-4,4.33263 0.9025,9.38732 2.70787,15.1641 2.16618,5.77681 5.05458,8.66521 8.66521,8.66521 2.52721,0 6.31823,-6.1378 11.37307,-18.41356 5.41561,-12.27566 8.48453,-20.03823 9.20678,-23.28773 l 89.90147,-217.17163 20.57986,-52.53279 c 3.97128,-10.83117 7.40126,-19.13531 10.28993,-24.91245 2.88812,-5.77645 6.85967,-12.45587 11.91465,-20.03828 5.41546,-7.94273 11.91436,-13.539 19.4967,-16.78883 7.58174,-3.61012 16.24694,-5.41537 25.99561,-5.41576 10.10906,3.9e-4 18.77426,3.43037 25.99561,10.28993 7.22064,6.86033 10.83113,15.34499 10.8315,25.45403 -3.7e-4,4.694 -2.70824,9.38765 -8.12363,14.08096 -5.4161,4.69398 -10.65132,7.04081 -15.70568,7.04047"
         style="font-variant:normal;font-stretch:normal;fill:#e97b70;font-family:UnPilgi;-inkscape-font-specification:UnPilgi"
         id="path3888" />
    </g>
  </g>
</svg>
